999
FreeCAD v1.0 Unknown
  0
SECTION
  2
HEADER
  9
$ACADVER
  1
AC1014
  9
$ACADMAINTVER
 70
     9
  9
$DWGCODEPAGE
  3
ANSI_1252
  9
$TEXTSTYLE
  7
STANDARD
  9
$DIMSTYLE
  2
STANDARD
  9
$DIMTXSTY
  7
STANDARD
  9
$CMLSTYLE
  2
STANDARD
  9
$LUNITS
 70
2
  9
$INSUNITS
 70
4
  9
$PEXTMAX
 10
50
 20
50
 30
50
  9
$PEXTMIN
 10
0
 20
0
 30
0
  9
$HANDSEED
  5
FFFF
  0
ENDSEC
  0
SECTION
  2
CLASSES
  0
CLASS
  1
ACDBDICTIONARYWDFLT
  2
AcDbDictionaryWithDefault
  3
ObjectDBX Classes
 90
        0
280
     0
281
     0
  0
CLASS
  1
XRECORD
  2
AcDbXrecord
  3
ObjectDBX Classes
 90
        0
280
     0
281
     0
  0
CLASS
  1
LWPOLYLINE
  2
AcDbPolyline
  3
ObjectDBX Classes
 90
        0
280
     0
281
     1
  0
ENDSEC
  0
SECTION
  2
TABLES
  0
TABLE
  2
VPORT
  5
20
330
0
100
AcDbSymbolTable
 70
     1
  0
VPORT
  5
21
330
20
100
AcDbSymbolTableRecord
100
AcDbViewportTableRecord
  2
*ACTIVE
 70
     0
  0
ENDTAB
  0
TABLE
  2
LTYPE
  5
22
330
0
100
AcDbSymbolTable
 70
     1
  0
LTYPE
  5
23
330
21
100
AcDbSymbolTableRecord
100
AcDbLinetypeTableRecord
  2
BYBLOCK
 70
     0
  3

 72
    65
 73
     0
 40
0.0
  0
LTYPE
  5
24
330
21
100
AcDbSymbolTableRecord
100
AcDbLinetypeTableRecord
  2
BYLAYER
 70
     0
  3

 72
    65
 73
     0
 40
0.0
  0
LTYPE
  5
25
330
21
100
AcDbSymbolTableRecord
100
AcDbLinetypeTableRecord
  2
CONTINUOUS
 70
     0
  3
Solid line
 72
    65
 73
     0
 40
0.0
  0
ENDTAB
  0
TABLE
  2
LAYER
  5
A88
330
0
100
AcDbSymbolTable
 70
16
  0
LAYER
  5
A89
330
A88
100
AcDbSymbolTableRecord
100
AcDbLayerTableRecord
  2
0
 70
   0
 62
   7
  6
CONTINUOUS
  0
LAYER
  5
A8A
330
A88
100
AcDbSymbolTableRecord
100
AcDbLayerTableRecord
  2
TopView
 70
    0
 62
    7
  6
CONTINUOUS
  0
LAYER
  5
A8B
330
A88
100
AcDbSymbolTableRecord
100
AcDbLayerTableRecord
  2
LblWindow
 70
    0
 62
    7
  6
CONTINUOUS
  0
LAYER
  5
A8C
330
A88
100
AcDbSymbolTableRecord
100
AcDbLayerTableRecord
  2
LblDesk
 70
    0
 62
    7
  6
CONTINUOUS
  0
LAYER
  5
A8D
330
A88
100
AcDbSymbolTableRecord
100
AcDbLayerTableRecord
  2
LblTreadmill
 70
    0
 62
    7
  6
CONTINUOUS
  0
LAYER
  5
A8E
330
A88
100
AcDbSymbolTableRecord
100
AcDbLayerTableRecord
  2
LblChair
 70
    0
 62
    7
  6
CONTINUOUS
  0
LAYER
  5
A8F
330
A88
100
AcDbSymbolTableRecord
100
AcDbLayerTableRecord
  2
LblPC
 70
    0
 62
    7
  6
CONTINUOUS
  0
LAYER
  5
A90
330
A88
100
AcDbSymbolTableRecord
100
AcDbLayerTableRecord
  2
LblLeftWall
 70
    0
 62
    7
  6
CONTINUOUS
  0
LAYER
  5
A91
330
A88
100
AcDbSymbolTableRecord
100
AcDbLayerTableRecord
  2
LblRightWall
 70
    0
 62
    7
  6
CONTINUOUS
  0
LAYER
  5
A92
330
A88
100
AcDbSymbolTableRecord
100
AcDbLayerTableRecord
  2
LblRoomWall
 70
    0
 62
    7
  6
CONTINUOUS
  0
LAYER
  5
A93
330
A88
100
AcDbSymbolTableRecord
100
AcDbLayerTableRecord
  2
Dimension
 70
    0
 62
    7
  6
CONTINUOUS
  0
LAYER
  5
A94
330
A88
100
AcDbSymbolTableRecord
100
AcDbLayerTableRecord
  2
Dimension
 70
    0
 62
    7
  6
CONTINUOUS
  0
LAYER
  5
A95
330
A88
100
AcDbSymbolTableRecord
100
AcDbLayerTableRecord
  2
Dimension001
 70
    0
 62
    7
  6
CONTINUOUS
  0
LAYER
  5
A96
330
A88
100
AcDbSymbolTableRecord
100
AcDbLayerTableRecord
  2
Dimension001
 70
    0
 62
    7
  6
CONTINUOUS
  0
LAYER
  5
A97
330
A88
100
AcDbSymbolTableRecord
100
AcDbLayerTableRecord
  2
Dimension002
 70
    0
 62
    7
  6
CONTINUOUS
  0
LAYER
  5
A98
330
A88
100
AcDbSymbolTableRecord
100
AcDbLayerTableRecord
  2
Dimension002
 70
    0
 62
    7
  6
CONTINUOUS
  0
ENDTAB
  0
TABLE
  2
STYLE
  5
70
330
0
100
AcDbSymbolTable
 70
     2
  0
STYLE
  5
71
330
70
100
AcDbSymbolTableRecord
100
AcDbTextStyleTableRecord
  2
STANDARD
 70
     0
 40
0.0
 41
1.0
 50
0.0
 71
     0
 42
2.5
  3
arial.ttf
  4

  0
STYLE
  5
72
330
70
100
AcDbSymbolTableRecord
100
AcDbTextStyleTableRecord
  2
ANNOTATIVE
 70
     0
 40
0.0
 41
1.0
 50
0.0
 71
     0
 42
2.5
  3
arial.ttf
  4

  0
ENDTAB
  0
TABLE
  2
VIEW
  5
73
330
0
100
AcDbSymbolTable
 70
     0
  0
ENDTAB
  0
TABLE
  2
UCS
  5
74
330
0
100
AcDbSymbolTable
 70
     0
  0
ENDTAB
  0
TABLE
  2
APPID
  5
75
330
0
100
AcDbSymbolTable
 70
     2
  0
APPID
  5
76
330
75
100
AcDbSymbolTableRecord
100
AcDbRegAppTableRecord
  2
ACAD
 70
     0
  0
APPID
  5
77
330
75
100
AcDbSymbolTableRecord
100
AcDbRegAppTableRecord
  2
ACADANNOTATIVE
 70
     0
  0
ENDTAB
  0
TABLE
  2
DIMSTYLE
  5
78
330
0
100
AcDbSymbolTable
 70
     2
  0
DIMSTYLE
105
79
330
78
100
AcDbSymbolTableRecord
100
AcDbDimStyleTableRecord
  2
STANDARD
 70
     0
  3

  4

  5

  6

  7

 40
0.0
 41
2.5
 42
0.625
 43
3.75
 44
1.25
 45
0.0
 46
0.0
 47
0.0
 48
0.0
140
2.5
141
2.5
142
0.0
143
0.03937007874016
144
1.0
145
0.0
146
1.0
147
0.625
 71
     0
 72
     0
 73
     0
 74
     0
 75
     0
 76
     0
 77
     1
 78
     8
170
     0
171
     3
172
     1
173
     0
174
     0
175
     0
176
     0
177
     0
178
     0
270
     2
271
     2
272
     2
273
     2
274
     3
340
71
275
     0
280
     0
281
     0
282
     0
283
     0
284
     8
285
     0
286
     0
287
     3
288
     0
  0
ENDTAB
  0
TABLE
  2
BLOCK_RECORD
  5
A01
330
0
100
AcDbSymbolTable
  70
5
  0
BLOCK_RECORD
  5
A02
330
A01
100
AcDbSymbolTableRecord
100
AcDbBlockTableRecord
  2
*MODEL_SPACE
  0
BLOCK_RECORD
  5
A03
330
A01
100
AcDbSymbolTableRecord
100
AcDbBlockTableRecord
  2
*PAPER_SPACE
  0
BLOCK_RECORD
  5
A4D
330
A01
100
AcDbSymbolTableRecord
100
AcDbBlockTableRecord
  2
*Dimension
  0
BLOCK_RECORD
  5
A57
330
A01
100
AcDbSymbolTableRecord
100
AcDbBlockTableRecord
  2
*Dimension
  0
BLOCK_RECORD
  5
A61
330
A01
100
AcDbSymbolTableRecord
100
AcDbBlockTableRecord
  2
*Dimension001
  0
BLOCK_RECORD
  5
A6B
330
A01
100
AcDbSymbolTableRecord
100
AcDbBlockTableRecord
  2
*Dimension001
  0
BLOCK_RECORD
  5
A75
330
A01
100
AcDbSymbolTableRecord
100
AcDbBlockTableRecord
  2
*Dimension002
  0
BLOCK_RECORD
  5
A7F
330
A01
100
AcDbSymbolTableRecord
100
AcDbBlockTableRecord
  2
*Dimension002
  0
ENDTAB
  0
ENDSEC
  0
SECTION
  2
BLOCKS
  0
BLOCK
  5
A04
330
A02
100
AcDbEntity
  8
0
100
AcDbBlockBegin
  2
*MODEL_SPACE
 70
   0
 10
0
 20
0
 30
0
  3
*MODEL_SPACE
  1
 
  0
ENDBLK
  5
A05
330
A02
100
AcDbEntity
  8
0
100
AcDbBlockEnd
  0
BLOCK
  5
A06
330
A03
100
AcDbEntity
 67
1
  8
0
100
AcDbBlockBegin
  2
*PAPER_SPACE
 70
   0
 10
0
 20
0
 30
0
  3
*PAPER_SPACE
  1
 
  0
ENDBLK
  5
A07
330
A03
100
AcDbEntity
 67
    1
  8
0
100
AcDbBlockEnd
  0
BLOCK
  5
A4E
330
A4D
100
AcDbEntity
  8
Dimension
100
AcDbBlockBegin
  2
*Dimension
 70
   1
 10
0
 20
0
 30
0
  3
*Dimension
  1
 
  0
LINE
  5
A4F
330
A4D
100
AcDbEntity
  8
Dimension
100
AcDbLine
 10
164.458
 20
46.375
 30
0
 11
164.458
 21
95
 31
0
  0
LINE
  5
A50
330
A4D
100
AcDbEntity
  8
Dimension
100
AcDbLine
 10
68.2075
 20
46.375
 30
0
 11
68.2075
 21
95
 31
0
  0
LINE
  5
A51
330
A4D
100
AcDbEntity
  8
Dimension
100
AcDbLine
 10
68.2075
 20
95
 30
0
 11
164.458
 21
95
 31
0
  0
TEXT
  5
A52
330
A4D
100
AcDbEntity
  8
Dimension
100
AcDbText
 10
130
 20
100
 30
0
 40
3.5
  1
175
  7
STANDARD
 72
1
 11
130
 21
95
 31
0
100
AcDbText
  0
SOLID
  5
A53
330
A4D
100
AcDbEntity
  8
0
 62
     0
100
AcDbTrace
 10
63.2075
 20
95.4167
 30
0
 11
63.2075
 21
94.5833
 31
0
 12
68.2075
 22
95
 32
0
 13
68.2075
 23
95
 33
0
  0
SOLID
  5
A54
330
A4D
100
AcDbEntity
  8
0
 62
     0
100
AcDbTrace
 10
169.458
 20
95.4167
 30
0
 11
169.458
 21
94.5833
 31
0
 12
164.458
 22
95
 32
0
 13
164.458
 23
95
 33
0
  0
ENDBLK
  5
A55
330
A4D
100
AcDbEntity
  8
Dimension
100
AcDbBlockEnd
  0
BLOCK
  5
A58
330
A57
100
AcDbEntity
  8
Dimension
100
AcDbBlockBegin
  2
*Dimension
 70
   1
 10
0
 20
0
 30
0
  3
*Dimension
  1
 
  0
LINE
  5
A59
330
A57
100
AcDbEntity
  8
Dimension
100
AcDbLine
 10
164.458
 20
46.375
 30
0
 11
164.458
 21
95
 31
0
  0
LINE
  5
A5A
330
A57
100
AcDbEntity
  8
Dimension
100
AcDbLine
 10
68.2075
 20
46.375
 30
0
 11
68.2075
 21
95
 31
0
  0
LINE
  5
A5B
330
A57
100
AcDbEntity
  8
Dimension
100
AcDbLine
 10
68.2075
 20
95
 30
0
 11
164.458
 21
95
 31
0
  0
TEXT
  5
A5C
330
A57
100
AcDbEntity
  8
Dimension
100
AcDbText
 10
130
 20
100
 30
0
 40
3.5
  1
175
  7
STANDARD
 72
1
 11
130
 21
95
 31
0
100
AcDbText
  0
SOLID
  5
A5D
330
A57
100
AcDbEntity
  8
0
 62
     0
100
AcDbTrace
 10
63.2075
 20
95.4167
 30
0
 11
63.2075
 21
94.5833
 31
0
 12
68.2075
 22
95
 32
0
 13
68.2075
 23
95
 33
0
  0
SOLID
  5
A5E
330
A57
100
AcDbEntity
  8
0
 62
     0
100
AcDbTrace
 10
169.458
 20
95.4167
 30
0
 11
169.458
 21
94.5833
 31
0
 12
164.458
 22
95
 32
0
 13
164.458
 23
95
 33
0
  0
ENDBLK
  5
A5F
330
A57
100
AcDbEntity
  8
Dimension
100
AcDbBlockEnd
  0
BLOCK
  5
A62
330
A61
100
AcDbEntity
  8
Dimension001
100
AcDbBlockBegin
  2
*Dimension001
 70
   1
 10
0
 20
0
 30
0
  3
*Dimension001
  1
 
  0
LINE
  5
A63
330
A61
100
AcDbEntity
  8
Dimension001
100
AcDbLine
 10
167.208
 20
81.245
 30
0
 11
125
 21
81.245
 31
0
  0
LINE
  5
A64
330
A61
100
AcDbEntity
  8
Dimension001
100
AcDbLine
 10
167.208
 20
49.125
 30
0
 11
125
 21
49.125
 31
0
  0
LINE
  5
A65
330
A61
100
AcDbEntity
  8
Dimension001
100
AcDbLine
 10
125
 20
49.125
 30
0
 11
125
 21
81.245
 31
0
  0
TEXT
  5
A66
330
A61
100
AcDbEntity
  8
Dimension001
100
AcDbText
 10
130
 20
100
 30
0
 40
3.5
  1
58.4
  7
STANDARD
 72
1
 11
125
 21
100
 31
0
100
AcDbText
  0
SOLID
  5
A67
330
A61
100
AcDbEntity
  8
0
 62
     0
100
AcDbTrace
 10
124.583
 20
44.125
 30
0
 11
125.417
 21
44.125
 31
0
 12
125
 22
49.125
 32
0
 13
125
 23
49.125
 33
0
  0
SOLID
  5
A68
330
A61
100
AcDbEntity
  8
0
 62
     0
100
AcDbTrace
 10
124.583
 20
86.245
 30
0
 11
125.417
 21
86.245
 31
0
 12
125
 22
81.245
 32
0
 13
125
 23
81.245
 33
0
  0
ENDBLK
  5
A69
330
A61
100
AcDbEntity
  8
Dimension001
100
AcDbBlockEnd
  0
BLOCK
  5
A6C
330
A6B
100
AcDbEntity
  8
Dimension001
100
AcDbBlockBegin
  2
*Dimension001
 70
   1
 10
0
 20
0
 30
0
  3
*Dimension001
  1
 
  0
LINE
  5
A6D
330
A6B
100
AcDbEntity
  8
Dimension001
100
AcDbLine
 10
167.208
 20
81.245
 30
0
 11
125
 21
81.245
 31
0
  0
LINE
  5
A6E
330
A6B
100
AcDbEntity
  8
Dimension001
100
AcDbLine
 10
167.208
 20
49.125
 30
0
 11
125
 21
49.125
 31
0
  0
LINE
  5
A6F
330
A6B
100
AcDbEntity
  8
Dimension001
100
AcDbLine
 10
125
 20
49.125
 30
0
 11
125
 21
81.245
 31
0
  0
TEXT
  5
A70
330
A6B
100
AcDbEntity
  8
Dimension001
100
AcDbText
 10
130
 20
100
 30
0
 40
3.5
  1
58.4
  7
STANDARD
 72
1
 11
125
 21
100
 31
0
100
AcDbText
  0
SOLID
  5
A71
330
A6B
100
AcDbEntity
  8
0
 62
     0
100
AcDbTrace
 10
124.583
 20
44.125
 30
0
 11
125.417
 21
44.125
 31
0
 12
125
 22
49.125
 32
0
 13
125
 23
49.125
 33
0
  0
SOLID
  5
A72
330
A6B
100
AcDbEntity
  8
0
 62
     0
100
AcDbTrace
 10
124.583
 20
86.245
 30
0
 11
125.417
 21
86.245
 31
0
 12
125
 22
81.245
 32
0
 13
125
 23
81.245
 33
0
  0
ENDBLK
  5
A73
330
A6B
100
AcDbEntity
  8
Dimension001
100
AcDbBlockEnd
  0
BLOCK
  5
A76
330
A75
100
AcDbEntity
  8
Dimension002
100
AcDbBlockBegin
  2
*Dimension002
 70
   1
 10
0
 20
0
 30
0
  3
*Dimension002
  1
 
  0
LINE
  5
A77
330
A75
100
AcDbEntity
  8
Dimension002
100
AcDbLine
 10
110.007
 20
142.625
 30
0
 11
110.007
 21
95
 31
0
  0
LINE
  5
A78
330
A75
100
AcDbEntity
  8
Dimension002
100
AcDbLine
 10
68.2075
 20
142.625
 30
0
 11
68.2075
 21
95
 31
0
  0
LINE
  5
A79
330
A75
100
AcDbEntity
  8
Dimension002
100
AcDbLine
 10
68.2075
 20
95
 30
0
 11
110.007
 21
95
 31
0
  0
TEXT
  5
A7A
330
A75
100
AcDbEntity
  8
Dimension002
100
AcDbText
 10
130
 20
100
 30
0
 40
3.5
  1
76
  7
STANDARD
 72
1
 11
130
 21
95
 31
0
100
AcDbText
  0
SOLID
  5
A7B
330
A75
100
AcDbEntity
  8
0
 62
     0
100
AcDbTrace
 10
63.2075
 20
94.5833
 30
0
 11
63.2075
 21
95.4167
 31
0
 12
68.2075
 22
95
 32
0
 13
68.2075
 23
95
 33
0
  0
SOLID
  5
A7C
330
A75
100
AcDbEntity
  8
0
 62
     0
100
AcDbTrace
 10
115.007
 20
94.5833
 30
0
 11
115.007
 21
95.4167
 31
0
 12
110.007
 22
95
 32
0
 13
110.007
 23
95
 33
0
  0
ENDBLK
  5
A7D
330
A75
100
AcDbEntity
  8
Dimension002
100
AcDbBlockEnd
  0
BLOCK
  5
A80
330
A7F
100
AcDbEntity
  8
Dimension002
100
AcDbBlockBegin
  2
*Dimension002
 70
   1
 10
0
 20
0
 30
0
  3
*Dimension002
  1
 
  0
LINE
  5
A81
330
A7F
100
AcDbEntity
  8
Dimension002
100
AcDbLine
 10
110.007
 20
142.625
 30
0
 11
110.007
 21
95
 31
0
  0
LINE
  5
A82
330
A7F
100
AcDbEntity
  8
Dimension002
100
AcDbLine
 10
68.2075
 20
142.625
 30
0
 11
68.2075
 21
95
 31
0
  0
LINE
  5
A83
330
A7F
100
AcDbEntity
  8
Dimension002
100
AcDbLine
 10
68.2075
 20
95
 30
0
 11
110.007
 21
95
 31
0
  0
TEXT
  5
A84
330
A7F
100
AcDbEntity
  8
Dimension002
100
AcDbText
 10
130
 20
100
 30
0
 40
3.5
  1
76
  7
STANDARD
 72
1
 11
130
 21
95
 31
0
100
AcDbText
  0
SOLID
  5
A85
330
A7F
100
AcDbEntity
  8
0
 62
     0
100
AcDbTrace
 10
63.2075
 20
94.5833
 30
0
 11
63.2075
 21
95.4167
 31
0
 12
68.2075
 22
95
 32
0
 13
68.2075
 23
95
 33
0
  0
SOLID
  5
A86
330
A7F
100
AcDbEntity
  8
0
 62
     0
100
AcDbTrace
 10
115.007
 20
94.5833
 30
0
 11
115.007
 21
95.4167
 31
0
 12
110.007
 22
95
 32
0
 13
110.007
 23
95
 33
0
  0
ENDBLK
  5
A87
330
A7F
100
AcDbEntity
  8
Dimension002
100
AcDbBlockEnd
  0
ENDSEC
  0
SECTION
  2
ENTITIES
  0
LINE
  5
A08
330
A02
100
AcDbEntity
  8
TopView
100
AcDbLine
 10
119.717274276
 20
94.933605812
 30
0.000000000
 11
119.907500000
 21
96.865000000
 31
0.000000000
  0
LINE
  5
A09
330
A02
100
AcDbEntity
  8
TopView
100
AcDbLine
 10
119.153907372
 20
93.076434020
 30
0.000000000
 11
119.717274276
 21
94.933605812
 31
0.000000000
  0
LINE
  5
A0A
330
A02
100
AcDbEntity
  8
TopView
100
AcDbLine
 10
118.239049162
 20
91.364854693
 30
0.000000000
 11
119.153907372
 21
93.076434020
 31
0.000000000
  0
LINE
  5
A0B
330
A02
100
AcDbEntity
  8
TopView
100
AcDbLine
 10
117.007857134
 20
89.864642866
 30
0.000000000
 11
118.239049162
 21
91.364854693
 31
0.000000000
  0
LINE
  5
A0C
330
A02
100
AcDbEntity
  8
TopView
100
AcDbLine
 10
115.507645307
 20
88.633450838
 30
0.000000000
 11
117.007857134
 21
89.864642866
 31
0.000000000
  0
LINE
  5
A0D
330
A02
100
AcDbEntity
  8
TopView
100
AcDbLine
 10
113.796065980
 20
87.718592628
 30
0.000000000
 11
115.507645307
 21
88.633450838
 31
0.000000000
  0
LINE
  5
A0E
330
A02
100
AcDbEntity
  8
TopView
100
AcDbLine
 10
111.938894188
 20
87.155225724
 30
0.000000000
 11
113.796065980
 21
87.718592628
 31
0.000000000
  0
LINE
  5
A0F
330
A02
100
AcDbEntity
  8
TopView
100
AcDbLine
 10
110.007500000
 20
86.965000000
 30
0.000000000
 11
111.938894188
 21
87.155225724
 31
0.000000000
  0
LINE
  5
A10
330
A02
100
AcDbEntity
  8
TopView
100
AcDbLine
 10
108.076105812
 20
87.155225724
 30
0.000000000
 11
110.007500000
 21
86.965000000
 31
0.000000000
  0
LINE
  5
A11
330
A02
100
AcDbEntity
  8
TopView
100
AcDbLine
 10
106.218934020
 20
87.718592628
 30
0.000000000
 11
108.076105812
 21
87.155225724
 31
0.000000000
  0
LINE
  5
A12
330
A02
100
AcDbEntity
  8
TopView
100
AcDbLine
 10
104.507354693
 20
88.633450838
 30
0.000000000
 11
106.218934020
 21
87.718592628
 31
0.000000000
  0
LINE
  5
A13
330
A02
100
AcDbEntity
  8
TopView
100
AcDbLine
 10
103.007142866
 20
89.864642866
 30
0.000000000
 11
104.507354693
 21
88.633450838
 31
0.000000000
  0
LINE
  5
A14
330
A02
100
AcDbEntity
  8
TopView
100
AcDbLine
 10
101.775950838
 20
91.364854693
 30
0.000000000
 11
103.007142866
 21
89.864642866
 31
0.000000000
  0
LINE
  5
A15
330
A02
100
AcDbEntity
  8
TopView
100
AcDbLine
 10
100.861092628
 20
93.076434020
 30
0.000000000
 11
101.775950838
 21
91.364854693
 31
0.000000000
  0
LINE
  5
A16
330
A02
100
AcDbEntity
  8
TopView
100
AcDbLine
 10
100.297725724
 20
94.933605812
 30
0.000000000
 11
100.861092628
 21
93.076434020
 31
0.000000000
  0
LINE
  5
A17
330
A02
100
AcDbEntity
  8
TopView
100
AcDbLine
 10
100.107500000
 20
96.865000000
 30
0.000000000
 11
100.297725724
 21
94.933605812
 31
0.000000000
  0
LINE
  5
A18
330
A02
100
AcDbEntity
  8
TopView
100
AcDbLine
 10
100.297725724
 20
98.796394188
 30
0.000000000
 11
100.107500000
 21
96.865000000
 31
0.000000000
  0
LINE
  5
A19
330
A02
100
AcDbEntity
  8
TopView
100
AcDbLine
 10
100.861092628
 20
100.653565980
 30
0.000000000
 11
100.297725724
 21
98.796394188
 31
0.000000000
  0
LINE
  5
A1A
330
A02
100
AcDbEntity
  8
TopView
100
AcDbLine
 10
101.775950838
 20
102.365145307
 30
0.000000000
 11
100.861092628
 21
100.653565980
 31
0.000000000
  0
LINE
  5
A1B
330
A02
100
AcDbEntity
  8
TopView
100
AcDbLine
 10
103.007142866
 20
103.865357134
 30
0.000000000
 11
101.775950838
 21
102.365145307
 31
0.000000000
  0
LINE
  5
A1C
330
A02
100
AcDbEntity
  8
TopView
100
AcDbLine
 10
104.507354693
 20
105.096549162
 30
0.000000000
 11
103.007142866
 21
103.865357134
 31
0.000000000
  0
LINE
  5
A1D
330
A02
100
AcDbEntity
  8
TopView
100
AcDbLine
 10
106.218934020
 20
106.011407372
 30
0.000000000
 11
104.507354693
 21
105.096549162
 31
0.000000000
  0
LINE
  5
A1E
330
A02
100
AcDbEntity
  8
TopView
100
AcDbLine
 10
108.076105812
 20
106.574774276
 30
0.000000000
 11
106.218934020
 21
106.011407372
 31
0.000000000
  0
LINE
  5
A1F
330
A02
100
AcDbEntity
  8
TopView
100
AcDbLine
 10
110.007500000
 20
106.765000000
 30
0.000000000
 11
108.076105812
 21
106.574774276
 31
0.000000000
  0
LINE
  5
A20
330
A02
100
AcDbEntity
  8
TopView
100
AcDbLine
 10
111.938894188
 20
106.574774276
 30
0.000000000
 11
110.007500000
 21
106.765000000
 31
0.000000000
  0
LINE
  5
A21
330
A02
100
AcDbEntity
  8
TopView
100
AcDbLine
 10
113.796065980
 20
106.011407372
 30
0.000000000
 11
111.938894188
 21
106.574774276
 31
0.000000000
  0
LINE
  5
A22
330
A02
100
AcDbEntity
  8
TopView
100
AcDbLine
 10
115.507645307
 20
105.096549162
 30
0.000000000
 11
113.796065980
 21
106.011407372
 31
0.000000000
  0
LINE
  5
A23
330
A02
100
AcDbEntity
  8
TopView
100
AcDbLine
 10
117.007857134
 20
103.865357134
 30
0.000000000
 11
115.507645307
 21
105.096549162
 31
0.000000000
  0
LINE
  5
A24
330
A02
100
AcDbEntity
  8
TopView
100
AcDbLine
 10
118.239049162
 20
102.365145307
 30
0.000000000
 11
117.007857134
 21
103.865357134
 31
0.000000000
  0
LINE
  5
A25
330
A02
100
AcDbEntity
  8
TopView
100
AcDbLine
 10
119.153907372
 20
100.653565980
 30
0.000000000
 11
118.239049162
 21
102.365145307
 31
0.000000000
  0
LINE
  5
A26
330
A02
100
AcDbEntity
  8
TopView
100
AcDbLine
 10
119.717274276
 20
98.796394188
 30
0.000000000
 11
119.153907372
 21
100.653565980
 31
0.000000000
  0
LINE
  5
A27
330
A02
100
AcDbEntity
  8
TopView
100
AcDbLine
 10
119.907500000
 20
96.865000000
 30
0.000000000
 11
119.717274276
 21
98.796394188
 31
0.000000000
  0
LINE
  5
A28
330
A02
100
AcDbEntity
  8
TopView
100
AcDbLine
 10
76.457500000
 20
77.065000000
 30
0.000000000
 11
76.457500000
 21
63.425000000
 31
0.000000000
  0
LINE
  5
A29
330
A02
100
AcDbEntity
  8
TopView
100
AcDbLine
 10
106.707500000
 20
77.065000000
 30
0.000000000
 11
76.457500000
 21
77.065000000
 31
0.000000000
  0
LINE
  5
A2A
330
A02
100
AcDbEntity
  8
TopView
100
AcDbLine
 10
106.707500000
 20
63.425000000
 30
0.000000000
 11
106.707500000
 21
77.065000000
 31
0.000000000
  0
LINE
  5
A2B
330
A02
100
AcDbEntity
  8
TopView
100
AcDbLine
 10
76.457500000
 20
63.425000000
 30
0.000000000
 11
106.707500000
 21
63.425000000
 31
0.000000000
  0
LINE
  5
A2C
330
A02
100
AcDbEntity
  8
TopView
100
AcDbLine
 10
68.207500000
 20
116.665000000
 30
0.000000000
 11
68.207500000
 21
77.065000000
 31
0.000000000
  0
LINE
  5
A2D
330
A02
100
AcDbEntity
  8
TopView
100
AcDbLine
 10
162.807500000
 20
116.665000000
 30
0.000000000
 11
68.207500000
 21
116.665000000
 31
0.000000000
  0
LINE
  5
A2E
330
A02
100
AcDbEntity
  8
TopView
100
AcDbLine
 10
162.807500000
 20
77.065000000
 30
0.000000000
 11
162.807500000
 21
116.665000000
 31
0.000000000
  0
LINE
  5
A2F
330
A02
100
AcDbEntity
  8
TopView
100
AcDbLine
 10
68.207500000
 20
77.065000000
 30
0.000000000
 11
162.807500000
 21
77.065000000
 31
0.000000000
  0
LINE
  5
A30
330
A02
100
AcDbEntity
  8
TopView
100
AcDbLine
 10
68.207500000
 20
139.875000000
 30
0.000000000
 11
68.207500000
 21
49.125000000
 31
0.000000000
  0
LINE
  5
A31
330
A02
100
AcDbEntity
  8
TopView
100
AcDbLine
 10
110.007500000
 20
139.875000000
 30
0.000000000
 11
68.207500000
 21
139.875000000
 31
0.000000000
  0
LINE
  5
A32
330
A02
100
AcDbEntity
  8
TopView
100
AcDbLine
 10
110.007500000
 20
49.125000000
 30
0.000000000
 11
110.007500000
 21
139.875000000
 31
0.000000000
  0
LINE
  5
A33
330
A02
100
AcDbEntity
  8
TopView
100
AcDbLine
 10
68.207500000
 20
49.125000000
 30
0.000000000
 11
110.007500000
 21
49.125000000
 31
0.000000000
  0
LINE
  5
A34
330
A02
100
AcDbEntity
  8
TopView
100
AcDbLine
 10
164.457500000
 20
81.410000000
 30
0.000000000
 11
164.457500000
 21
81.245000000
 31
0.000000000
  0
LINE
  5
A35
330
A02
100
AcDbEntity
  8
TopView
100
AcDbLine
 10
191.957500000
 20
81.410000000
 30
0.000000000
 11
164.457500000
 21
81.410000000
 31
0.000000000
  0
LINE
  5
A36
330
A02
100
AcDbEntity
  8
TopView
100
AcDbLine
 10
191.957500000
 20
81.245000000
 30
0.000000000
 11
191.957500000
 21
81.410000000
 31
0.000000000
  0
LINE
  5
A37
330
A02
100
AcDbEntity
  8
TopView
100
AcDbLine
 10
164.457500000
 20
81.245000000
 30
0.000000000
 11
191.957500000
 21
81.245000000
 31
0.000000000
  0
LINE
  5
A38
330
A02
100
AcDbEntity
  8
TopView
100
AcDbLine
 10
164.292500000
 20
49.125000000
 30
0.000000000
 11
164.457500000
 21
49.125000000
 31
0.000000000
  0
LINE
  5
A39
330
A02
100
AcDbEntity
  8
TopView
100
AcDbLine
 10
164.292500000
 20
81.245000000
 30
0.000000000
 11
164.292500000
 21
49.125000000
 31
0.000000000
  0
LINE
  5
A3A
330
A02
100
AcDbEntity
  8
TopView
100
AcDbLine
 10
164.457500000
 20
81.245000000
 30
0.000000000
 11
164.292500000
 21
81.245000000
 31
0.000000000
  0
LINE
  5
A3B
330
A02
100
AcDbEntity
  8
TopView
100
AcDbLine
 10
164.457500000
 20
49.125000000
 30
0.000000000
 11
164.457500000
 21
81.245000000
 31
0.000000000
  0
LINE
  5
A3C
330
A02
100
AcDbEntity
  8
TopView
100
AcDbLine
 10
68.042500000
 20
49.125000000
 30
0.000000000
 11
68.207500000
 21
49.125000000
 31
0.000000000
  0
LINE
  5
A3D
330
A02
100
AcDbEntity
  8
TopView
100
AcDbLine
 10
68.042500000
 20
150.875000000
 30
0.000000000
 11
68.042500000
 21
49.125000000
 31
0.000000000
  0
LINE
  5
A3E
330
A02
100
AcDbEntity
  8
TopView
100
AcDbLine
 10
68.207500000
 20
150.875000000
 30
0.000000000
 11
68.042500000
 21
150.875000000
 31
0.000000000
  0
LINE
  5
A3F
330
A02
100
AcDbEntity
  8
TopView
100
AcDbLine
 10
68.207500000
 20
49.125000000
 30
0.000000000
 11
68.207500000
 21
150.875000000
 31
0.000000000
  0
LINE
  5
A40
330
A02
100
AcDbEntity
  8
TopView
100
AcDbLine
 10
68.207500000
 20
49.290000000
 30
0.000000000
 11
68.207500000
 21
49.125000000
 31
0.000000000
  0
LINE
  5
A41
330
A02
100
AcDbEntity
  8
TopView
100
AcDbLine
 10
164.457500000
 20
49.290000000
 30
0.000000000
 11
68.207500000
 21
49.290000000
 31
0.000000000
  0
LINE
  5
A42
330
A02
100
AcDbEntity
  8
TopView
100
AcDbLine
 10
164.457500000
 20
49.125000000
 30
0.000000000
 11
164.457500000
 21
49.290000000
 31
0.000000000
  0
LINE
  5
A43
330
A02
100
AcDbEntity
  8
TopView
100
AcDbLine
 10
68.207500000
 20
49.125000000
 30
0.000000000
 11
164.457500000
 21
49.125000000
 31
0.000000000
  0
TEXT
  5
A44
330
A02
100
AcDbEntity
  8
LblWindow
100
AcDbText
 10
116.332500000
 20
155.275000000
 30
0.000000000
 40
4.000000000
  1
WINDOW
  7
STANDARD
 72
1
 11
116.332500000
 21
155.275000000
 31
0.000000000
100
AcDbText
  0
TEXT
  5
A45
330
A02
100
AcDbEntity
  8
LblDesk
100
AcDbText
 10
79.207500000
 20
104.125000000
 30
0.000000000
 40
5.000000000
  1
DESK
  7
STANDARD
 72
1
 11
79.207500000
 21
104.125000000
 31
0.000000000
100
AcDbText
  0
TEXT
  5
A46
330
A02
100
AcDbEntity
  8
LblTreadmill
100
AcDbText
 10
134.207500000
 20
103.135000000
 30
0.000000000
 40
5.000000000
  1
TREADMILL
  7
STANDARD
 72
1
 11
134.207500000
 21
103.135000000
 31
0.000000000
100
AcDbText
  0
TEXT
  5
A47
330
A02
100
AcDbEntity
  8
LblChair
100
AcDbText
 10
110.007500000
 20
103.135000000
 30
0.000000000
 40
4.000000000
  1
CHAIR
  7
STANDARD
 72
1
 11
110.007500000
 21
103.135000000
 31
0.000000000
100
AcDbText
  0
TEXT
  5
A48
330
A02
100
AcDbEntity
  8
LblPC
100
AcDbText
 10
91.582500000
 20
129.755000000
 30
0.000000000
 40
4.000000000
  1
PC
  7
STANDARD
 72
1
 11
91.582500000
 21
129.755000000
 31
0.000000000
100
AcDbText
  0
TEXT
  5
A49
330
A02
100
AcDbEntity
  8
LblLeftWall
100
AcDbText
 10
62.707500000
 20
95.875000000
 30
0.000000000
 40
3.000000000
  1
LEFT WALL
  7
STANDARD
 72
1
 11
62.707500000
 21
95.875000000
 31
0.000000000
100
AcDbText
  0
TEXT
  5
A4A
330
A02
100
AcDbEntity
  8
LblRightWall
100
AcDbText
 10
167.207500000
 20
134.815000000
 30
0.000000000
 40
3.000000000
  1
RIGHT WALL
  7
STANDARD
 72
1
 11
167.207500000
 21
134.815000000
 31
0.000000000
100
AcDbText
  0
TEXT
  5
A4B
330
A02
100
AcDbEntity
  8
LblRoomWall
100
AcDbText
 10
180.957500000
 20
113.255000000
 30
0.000000000
 40
3.000000000
  1
ROOM WALL
  7
STANDARD
 72
1
 11
180.957500000
 21
113.255000000
 31
0.000000000
100
AcDbText
  0
DIMENSION
  5
A4C
330
A02
100
AcDbEntity
  8
Dimension
100
AcDbDimension
  2
*Dimension
 10
130.000000000
 20
95.000000000
 30
0.000000000
 11
130.000000000
 21
100.000000000
 31
0.000000000
 70
32
  1
175
  3
STANDARD
100
AcDbAlignedDimension
 13
68.207500000
 23
46.375000000
 33
0.000000000
 14
164.457500000
 24
46.375000000
 34
0.000000000
100
AcDbRotatedDimension
  0
DIMENSION
  5
A56
330
A02
100
AcDbEntity
  8
Dimension
100
AcDbDimension
  2
*Dimension
 10
130.000000000
 20
95.000000000
 30
0.000000000
 11
130.000000000
 21
100.000000000
 31
0.000000000
 70
32
  1
175
  3
STANDARD
100
AcDbAlignedDimension
 13
68.207500000
 23
46.375000000
 33
0.000000000
 14
164.457500000
 24
46.375000000
 34
0.000000000
100
AcDbRotatedDimension
  0
DIMENSION
  5
A60
330
A02
100
AcDbEntity
  8
Dimension001
100
AcDbDimension
  2
*Dimension001
 10
125.000000000
 20
100.000000000
 30
0.000000000
 11
130.000000000
 21
100.000000000
 31
0.000000000
 70
32
  1
58.4
  3
STANDARD
100
AcDbAlignedDimension
 13
167.207500000
 23
49.125000000
 33
0.000000000
 14
167.207500000
 24
81.245000000
 34
0.000000000
 50
90
100
AcDbRotatedDimension
  0
DIMENSION
  5
A6A
330
A02
100
AcDbEntity
  8
Dimension001
100
AcDbDimension
  2
*Dimension001
 10
125.000000000
 20
100.000000000
 30
0.000000000
 11
130.000000000
 21
100.000000000
 31
0.000000000
 70
32
  1
58.4
  3
STANDARD
100
AcDbAlignedDimension
 13
167.207500000
 23
49.125000000
 33
0.000000000
 14
167.207500000
 24
81.245000000
 34
0.000000000
 50
90
100
AcDbRotatedDimension
  0
DIMENSION
  5
A74
330
A02
100
AcDbEntity
  8
Dimension002
100
AcDbDimension
  2
*Dimension002
 10
130.000000000
 20
95.000000000
 30
0.000000000
 11
130.000000000
 21
100.000000000
 31
0.000000000
 70
32
  1
76
  3
STANDARD
100
AcDbAlignedDimension
 13
68.207500000
 23
142.625000000
 33
0.000000000
 14
110.007500000
 24
142.625000000
 34
0.000000000
100
AcDbRotatedDimension
  0
DIMENSION
  5
A7E
330
A02
100
AcDbEntity
  8
Dimension002
100
AcDbDimension
  2
*Dimension002
 10
130.000000000
 20
95.000000000
 30
0.000000000
 11
130.000000000
 21
100.000000000
 31
0.000000000
 70
32
  1
76
  3
STANDARD
100
AcDbAlignedDimension
 13
68.207500000
 23
142.625000000
 33
0.000000000
 14
110.007500000
 24
142.625000000
 34
0.000000000
100
AcDbRotatedDimension
  0
ENDSEC
  0
SECTION
  2
OBJECTS
  0
DICTIONARY
  5
F000
330
0
100
AcDbDictionary
  3
ACAD_GROUP
350
F001
  0
DICTIONARY
  5
F001
330
F000
100
AcDbDictionary
  0
ENDSEC
  0
EOF