999
FreeCAD v1.1 20260325 (Git shallow)
  0
SECTION
  2
HEADER
  9
$ACADVER
  1
AC1014
  9
$ACADMAINTVER
 70
     9
  9
$DWGCODEPAGE
  3
ANSI_1252
  9
$TEXTSTYLE
  7
STANDARD
  9
$DIMSTYLE
  2
STANDARD
  9
$DIMTXSTY
  7
STANDARD
  9
$CMLSTYLE
  2
STANDARD
  9
$LUNITS
 70
2
  9
$INSUNITS
 70
4
  9
$PEXTMAX
 10
50
 20
50
 30
50
  9
$PEXTMIN
 10
0
 20
0
 30
0
  9
$HANDSEED
  5
FFFF
  0
ENDSEC
  0
SECTION
  2
CLASSES
  0
CLASS
  1
ACDBDICTIONARYWDFLT
  2
AcDbDictionaryWithDefault
  3
ObjectDBX Classes
 90
        0
280
     0
281
     0
  0
CLASS
  1
XRECORD
  2
AcDbXrecord
  3
ObjectDBX Classes
 90
        0
280
     0
281
     0
  0
CLASS
  1
LWPOLYLINE
  2
AcDbPolyline
  3
ObjectDBX Classes
 90
        0
280
     0
281
     1
  0
ENDSEC
  0
SECTION
  2
TABLES
  0
TABLE
  2
VPORT
  5
20
330
0
100
AcDbSymbolTable
 70
     1
  0
VPORT
  5
21
330
20
100
AcDbSymbolTableRecord
100
AcDbViewportTableRecord
  2
*ACTIVE
 70
     0
  0
ENDTAB
  0
TABLE
  2
LTYPE
  5
22
330
0
100
AcDbSymbolTable
 70
     1
  0
LTYPE
  5
23
330
21
100
AcDbSymbolTableRecord
100
AcDbLinetypeTableRecord
  2
BYBLOCK
 70
     0
  3

 72
    65
 73
     0
 40
0.0
  0
LTYPE
  5
24
330
21
100
AcDbSymbolTableRecord
100
AcDbLinetypeTableRecord
  2
BYLAYER
 70
     0
  3

 72
    65
 73
     0
 40
0.0
  0
LTYPE
  5
25
330
21
100
AcDbSymbolTableRecord
100
AcDbLinetypeTableRecord
  2
CONTINUOUS
 70
     0
  3
Solid line
 72
    65
 73
     0
 40
0.0
  0
ENDTAB
  0
TABLE
  2
LAYER
  5
A35
330
0
100
AcDbSymbolTable
 70
7
  0
LAYER
  5
A36
330
A35
100
AcDbSymbolTableRecord
100
AcDbLayerTableRecord
  2
0
 70
   0
 62
   7
  6
CONTINUOUS
  0
LAYER
  5
A37
330
A35
100
AcDbSymbolTableRecord
100
AcDbLayerTableRecord
  2
TopView
 70
    0
 62
    7
  6
CONTINUOUS
  0
LAYER
  5
A38
330
A35
100
AcDbSymbolTableRecord
100
AcDbLayerTableRecord
  2
Dimension
 70
    0
 62
    7
  6
CONTINUOUS
  0
LAYER
  5
A39
330
A35
100
AcDbSymbolTableRecord
100
AcDbLayerTableRecord
  2
Dimension
 70
    0
 62
    7
  6
CONTINUOUS
  0
LAYER
  5
A3A
330
A35
100
AcDbSymbolTableRecord
100
AcDbLayerTableRecord
  2
Dimension001
 70
    0
 62
    7
  6
CONTINUOUS
  0
LAYER
  5
A3B
330
A35
100
AcDbSymbolTableRecord
100
AcDbLayerTableRecord
  2
Dimension001
 70
    0
 62
    7
  6
CONTINUOUS
  0
LAYER
  5
A3C
330
A35
100
AcDbSymbolTableRecord
100
AcDbLayerTableRecord
  2
Title
 70
    0
 62
    7
  6
CONTINUOUS
  0
ENDTAB
  0
TABLE
  2
STYLE
  5
70
330
0
100
AcDbSymbolTable
 70
     2
  0
STYLE
  5
71
330
70
100
AcDbSymbolTableRecord
100
AcDbTextStyleTableRecord
  2
STANDARD
 70
     0
 40
0.0
 41
1.0
 50
0.0
 71
     0
 42
2.5
  3
arial.ttf
  4

  0
STYLE
  5
72
330
70
100
AcDbSymbolTableRecord
100
AcDbTextStyleTableRecord
  2
ANNOTATIVE
 70
     0
 40
0.0
 41
1.0
 50
0.0
 71
     0
 42
2.5
  3
arial.ttf
  4

  0
ENDTAB
  0
TABLE
  2
VIEW
  5
73
330
0
100
AcDbSymbolTable
 70
     0
  0
ENDTAB
  0
TABLE
  2
UCS
  5
74
330
0
100
AcDbSymbolTable
 70
     0
  0
ENDTAB
  0
TABLE
  2
APPID
  5
75
330
0
100
AcDbSymbolTable
 70
     2
  0
APPID
  5
76
330
75
100
AcDbSymbolTableRecord
100
AcDbRegAppTableRecord
  2
ACAD
 70
     0
  0
APPID
  5
77
330
75
100
AcDbSymbolTableRecord
100
AcDbRegAppTableRecord
  2
ACADANNOTATIVE
 70
     0
  0
ENDTAB
  0
TABLE
  2
DIMSTYLE
  5
78
330
0
100
AcDbSymbolTable
 70
     2
  0
DIMSTYLE
105
79
330
78
100
AcDbSymbolTableRecord
100
AcDbDimStyleTableRecord
  2
STANDARD
 70
     0
  3

  4

  5

  6

  7

 40
0.0
 41
2.5
 42
0.625
 43
3.75
 44
1.25
 45
0.0
 46
0.0
 47
0.0
 48
0.0
140
2.5
141
2.5
142
0.0
143
0.03937007874016
144
1.0
145
0.0
146
1.0
147
0.625
 71
     0
 72
     0
 73
     0
 74
     0
 75
     0
 76
     0
 77
     1
 78
     8
170
     0
171
     3
172
     1
173
     0
174
     0
175
     0
176
     0
177
     0
178
     0
270
     2
271
     2
272
     2
273
     2
274
     3
340
71
275
     0
280
     0
281
     0
282
     0
283
     0
284
     8
285
     0
286
     0
287
     3
288
     0
  0
ENDTAB
  0
TABLE
  2
BLOCK_RECORD
  5
A01
330
0
100
AcDbSymbolTable
  70
5
  0
BLOCK_RECORD
  5
A02
330
A01
100
AcDbSymbolTableRecord
100
AcDbBlockTableRecord
  2
*MODEL_SPACE
  0
BLOCK_RECORD
  5
A03
330
A01
100
AcDbSymbolTableRecord
100
AcDbBlockTableRecord
  2
*PAPER_SPACE
  0
BLOCK_RECORD
  5
A0D
330
A01
100
AcDbSymbolTableRecord
100
AcDbBlockTableRecord
  2
*Dimension
  0
BLOCK_RECORD
  5
A17
330
A01
100
AcDbSymbolTableRecord
100
AcDbBlockTableRecord
  2
*Dimension
  0
BLOCK_RECORD
  5
A21
330
A01
100
AcDbSymbolTableRecord
100
AcDbBlockTableRecord
  2
*Dimension001
  0
BLOCK_RECORD
  5
A2B
330
A01
100
AcDbSymbolTableRecord
100
AcDbBlockTableRecord
  2
*Dimension001
  0
ENDTAB
  0
ENDSEC
  0
SECTION
  2
BLOCKS
  0
BLOCK
  5
A04
330
A02
100
AcDbEntity
  8
0
100
AcDbBlockBegin
  2
*MODEL_SPACE
 70
   0
 10
0
 20
0
 30
0
  3
*MODEL_SPACE
  1
 
  0
ENDBLK
  5
A05
330
A02
100
AcDbEntity
  8
0
100
AcDbBlockEnd
  0
BLOCK
  5
A06
330
A03
100
AcDbEntity
 67
1
  8
0
100
AcDbBlockBegin
  2
*PAPER_SPACE
 70
   0
 10
0
 20
0
 30
0
  3
*PAPER_SPACE
  1
 
  0
ENDBLK
  5
A07
330
A03
100
AcDbEntity
 67
    1
  8
0
100
AcDbBlockEnd
  0
BLOCK
  5
A0E
330
A0D
100
AcDbEntity
  8
Dimension
100
AcDbBlockBegin
  2
*Dimension
 70
   1
 10
0
 20
0
 30
0
  3
*Dimension
  1
 
  0
LINE
  5
A0F
330
A0D
100
AcDbEntity
  8
Dimension
100
AcDbLine
 10
200
 20
5
 30
0
 11
200
 21
0
 31
0
  0
LINE
  5
A10
330
A0D
100
AcDbEntity
  8
Dimension
100
AcDbLine
 10
100
 20
5
 30
0
 11
100
 21
0
 31
0
  0
LINE
  5
A11
330
A0D
100
AcDbEntity
  8
Dimension
100
AcDbLine
 10
100
 20
0
 30
0
 11
200
 21
0
 31
0
  0
TEXT
  5
A12
330
A0D
100
AcDbEntity
  8
Dimension
100
AcDbText
 10
150
 20
5
 30
0
 40
3.5
  1
100
  7
STANDARD
 72
1
 11
150
 21
0
 31
0
100
AcDbText
  0
SOLID
  5
A13
330
A0D
100
AcDbEntity
  8
0
 62
     0
100
AcDbTrace
 10
95
 20
-0.416667
 30
0
 11
95
 21
0.416667
 31
0
 12
100
 22
0
 32
0
 13
100
 23
0
 33
0
  0
SOLID
  5
A14
330
A0D
100
AcDbEntity
  8
0
 62
     0
100
AcDbTrace
 10
205
 20
-0.416667
 30
0
 11
205
 21
0.416667
 31
0
 12
200
 22
0
 32
0
 13
200
 23
0
 33
0
  0
ENDBLK
  5
A15
330
A0D
100
AcDbEntity
  8
Dimension
100
AcDbBlockEnd
  0
BLOCK
  5
A18
330
A17
100
AcDbEntity
  8
Dimension
100
AcDbBlockBegin
  2
*Dimension
 70
   1
 10
0
 20
0
 30
0
  3
*Dimension
  1
 
  0
LINE
  5
A19
330
A17
100
AcDbEntity
  8
Dimension
100
AcDbLine
 10
200
 20
5
 30
0
 11
200
 21
0
 31
0
  0
LINE
  5
A1A
330
A17
100
AcDbEntity
  8
Dimension
100
AcDbLine
 10
100
 20
5
 30
0
 11
100
 21
0
 31
0
  0
LINE
  5
A1B
330
A17
100
AcDbEntity
  8
Dimension
100
AcDbLine
 10
100
 20
0
 30
0
 11
200
 21
0
 31
0
  0
TEXT
  5
A1C
330
A17
100
AcDbEntity
  8
Dimension
100
AcDbText
 10
150
 20
5
 30
0
 40
3.5
  1
100
  7
STANDARD
 72
1
 11
150
 21
0
 31
0
100
AcDbText
  0
SOLID
  5
A1D
330
A17
100
AcDbEntity
  8
0
 62
     0
100
AcDbTrace
 10
95
 20
-0.416667
 30
0
 11
95
 21
0.416667
 31
0
 12
100
 22
0
 32
0
 13
100
 23
0
 33
0
  0
SOLID
  5
A1E
330
A17
100
AcDbEntity
  8
0
 62
     0
100
AcDbTrace
 10
205
 20
-0.416667
 30
0
 11
205
 21
0.416667
 31
0
 12
200
 22
0
 32
0
 13
200
 23
0
 33
0
  0
ENDBLK
  5
A1F
330
A17
100
AcDbEntity
  8
Dimension
100
AcDbBlockEnd
  0
BLOCK
  5
A22
330
A21
100
AcDbEntity
  8
Dimension001
100
AcDbBlockBegin
  2
*Dimension001
 70
   1
 10
0
 20
0
 30
0
  3
*Dimension001
  1
 
  0
LINE
  5
A23
330
A21
100
AcDbEntity
  8
Dimension001
100
AcDbLine
 10
215
 20
220
 30
0
 11
220
 21
220
 31
0
  0
LINE
  5
A24
330
A21
100
AcDbEntity
  8
Dimension001
100
AcDbLine
 10
215
 20
20
 30
0
 11
220
 21
20
 31
0
  0
LINE
  5
A25
330
A21
100
AcDbEntity
  8
Dimension001
100
AcDbLine
 10
220
 20
20
 30
0
 11
220
 21
220
 31
0
  0
TEXT
  5
A26
330
A21
100
AcDbEntity
  8
Dimension001
100
AcDbText
 10
225
 20
120
 30
0
 40
3.5
  1
200
  7
STANDARD
 72
1
 11
220
 21
120
 31
0
100
AcDbText
  0
SOLID
  5
A27
330
A21
100
AcDbEntity
  8
0
 62
     0
100
AcDbTrace
 10
220.417
 20
15
 30
0
 11
219.583
 21
15
 31
0
 12
220
 22
20
 32
0
 13
220
 23
20
 33
0
  0
SOLID
  5
A28
330
A21
100
AcDbEntity
  8
0
 62
     0
100
AcDbTrace
 10
220.417
 20
225
 30
0
 11
219.583
 21
225
 31
0
 12
220
 22
220
 32
0
 13
220
 23
220
 33
0
  0
ENDBLK
  5
A29
330
A21
100
AcDbEntity
  8
Dimension001
100
AcDbBlockEnd
  0
BLOCK
  5
A2C
330
A2B
100
AcDbEntity
  8
Dimension001
100
AcDbBlockBegin
  2
*Dimension001
 70
   1
 10
0
 20
0
 30
0
  3
*Dimension001
  1
 
  0
LINE
  5
A2D
330
A2B
100
AcDbEntity
  8
Dimension001
100
AcDbLine
 10
215
 20
220
 30
0
 11
220
 21
220
 31
0
  0
LINE
  5
A2E
330
A2B
100
AcDbEntity
  8
Dimension001
100
AcDbLine
 10
215
 20
20
 30
0
 11
220
 21
20
 31
0
  0
LINE
  5
A2F
330
A2B
100
AcDbEntity
  8
Dimension001
100
AcDbLine
 10
220
 20
20
 30
0
 11
220
 21
220
 31
0
  0
TEXT
  5
A30
330
A2B
100
AcDbEntity
  8
Dimension001
100
AcDbText
 10
225
 20
120
 30
0
 40
3.5
  1
200
  7
STANDARD
 72
1
 11
220
 21
120
 31
0
100
AcDbText
  0
SOLID
  5
A31
330
A2B
100
AcDbEntity
  8
0
 62
     0
100
AcDbTrace
 10
220.417
 20
15
 30
0
 11
219.583
 21
15
 31
0
 12
220
 22
20
 32
0
 13
220
 23
20
 33
0
  0
SOLID
  5
A32
330
A2B
100
AcDbEntity
  8
0
 62
     0
100
AcDbTrace
 10
220.417
 20
225
 30
0
 11
219.583
 21
225
 31
0
 12
220
 22
220
 32
0
 13
220
 23
220
 33
0
  0
ENDBLK
  5
A33
330
A2B
100
AcDbEntity
  8
Dimension001
100
AcDbBlockEnd
  0
ENDSEC
  0
SECTION
  2
ENTITIES
  0
LINE
  5
A08
330
A02
100
AcDbEntity
  8
TopView
100
AcDbLine
 10
100.000000000
 20
20.000000000
 30
0.000000000
 11
200.000000000
 21
20.000000000
 31
0.000000000
  0
LINE
  5
A09
330
A02
100
AcDbEntity
  8
TopView
100
AcDbLine
 10
200.000000000
 20
20.000000000
 30
0.000000000
 11
200.000000000
 21
220.000000000
 31
0.000000000
  0
LINE
  5
A0A
330
A02
100
AcDbEntity
  8
TopView
100
AcDbLine
 10
200.000000000
 20
220.000000000
 30
0.000000000
 11
100.000000000
 21
220.000000000
 31
0.000000000
  0
LINE
  5
A0B
330
A02
100
AcDbEntity
  8
TopView
100
AcDbLine
 10
100.000000000
 20
220.000000000
 30
0.000000000
 11
100.000000000
 21
20.000000000
 31
0.000000000
  0
DIMENSION
  5
A0C
330
A02
100
AcDbEntity
  8
Dimension
100
AcDbDimension
  2
*Dimension
 10
150.000000000
 20
0.000000000
 30
0.000000000
 11
150.000000000
 21
5.000000000
 31
0.000000000
 70
32
  1
100
  3
STANDARD
100
AcDbAlignedDimension
 13
100.000000000
 23
5.000000000
 33
0.000000000
 14
200.000000000
 24
5.000000000
 34
0.000000000
100
AcDbRotatedDimension
  0
DIMENSION
  5
A16
330
A02
100
AcDbEntity
  8
Dimension
100
AcDbDimension
  2
*Dimension
 10
150.000000000
 20
0.000000000
 30
0.000000000
 11
150.000000000
 21
5.000000000
 31
0.000000000
 70
32
  1
100
  3
STANDARD
100
AcDbAlignedDimension
 13
100.000000000
 23
5.000000000
 33
0.000000000
 14
200.000000000
 24
5.000000000
 34
0.000000000
100
AcDbRotatedDimension
  0
DIMENSION
  5
A20
330
A02
100
AcDbEntity
  8
Dimension001
100
AcDbDimension
  2
*Dimension001
 10
220.000000000
 20
120.000000000
 30
0.000000000
 11
225.000000000
 21
120.000000000
 31
0.000000000
 70
32
  1
200
  3
STANDARD
100
AcDbAlignedDimension
 13
215.000000000
 23
20.000000000
 33
0.000000000
 14
215.000000000
 24
220.000000000
 34
0.000000000
 50
90
100
AcDbRotatedDimension
  0
DIMENSION
  5
A2A
330
A02
100
AcDbEntity
  8
Dimension001
100
AcDbDimension
  2
*Dimension001
 10
220.000000000
 20
120.000000000
 30
0.000000000
 11
225.000000000
 21
120.000000000
 31
0.000000000
 70
32
  1
200
  3
STANDARD
100
AcDbAlignedDimension
 13
215.000000000
 23
20.000000000
 33
0.000000000
 14
215.000000000
 24
220.000000000
 34
0.000000000
 50
90
100
AcDbRotatedDimension
  0
TEXT
  5
A34
330
A02
100
AcDbEntity
  8
Title
100
AcDbText
 10
150.000000000
 20
235.000000000
 30
0.000000000
 40
5.000000000
  1
Text annotation
  7
STANDARD
 72
1
 11
150.000000000
 21
235.000000000
 31
0.000000000
100
AcDbText
  0
ENDSEC
  0
SECTION
  2
OBJECTS
  0
DICTIONARY
  5
F000
330
0
100
AcDbDictionary
  3
ACAD_GROUP
350
F001
  0
DICTIONARY
  5
F001
330
F000
100
AcDbDictionary
  0
ENDSEC
  0
EOF